Coordinates
version=1
nRows=11
nColumns=40
inDegrees=yes

Units are S.I. units (second, meters, Newtons, ...)
Angles are in degrees.

endheader
time	pelvis_tilt	pelvis_list	pelvis_rotation	pelvis_tx	pelvis_ty	pelvis_tz	hip_flexion_r	hip_adduction_r	hip_rotation_r	knee_angle_r	knee_angle_r_beta	ankle_angle_r	subtalar_angle_r	mtp_angle_r	hip_flexion_l	hip_adduction_l	hip_rotation_l	knee_angle_l	knee_angle_l_beta	ankle_angle_l	subtalar_angle_l	mtp_angle_l	lumbar_extension	lumbar_bending	lumbar_rotation	arm_flex_r	arm_add_r	arm_rot_r	elbow_flex_r	pro_sup_r	wrist_flex_r	wrist_dev_r	arm_flex_l	arm_add_l	arm_rot_l	elbow_flex_l	pro_sup_l	wrist_flex_l	wrist_dev_l
     49.90000000	     -4.41128381	     -5.44378891	      0.56018995	      0.91042873	      0.91832292	      0.40054037	     16.28986250	     -7.00087127	     -7.35941992	     57.90418773	     57.90418773	      3.90094756	    -16.89343581	      2.85711528	     18.12764455	     -2.88904711	     -3.14907205	     31.82888300	     31.82888300	     20.27580767	    -17.38055256	      8.91519941	    -11.01717026	      7.02203434	      3.80415460	     16.26963909	    -15.53496447	    -19.72807757	     23.38617399	     47.10903052	      0.00000000	      0.00000000	     13.68656229	    -14.86733223	     14.80489286	     41.24705291	     45.96176182	      0.00000000	      0.00000000
     49.91964286	     -4.45231880	     -5.55537263	     -0.11570076	      0.90841943	      0.91790010	      0.39966123	     17.89722547	     -6.71766534	     -7.12237552	     58.81798463	     58.81798463	      4.39308693	    -17.16856346	      2.70398197	     17.86600236	     -3.08900826	     -3.68708538	     32.00290094	     32.00290094	     20.71521989	    -17.37415759	      8.97766828	    -11.12409247	      7.26315508	      3.50766530	     13.60727519	    -14.58880043	    -19.75414239	     22.13348945	     47.13995561	      0.00000000	      0.00000000	     15.16639600	    -15.28041894	     14.25595414	     42.74514129	     46.04823543	      0.00000000	      0.00000000
     49.93928571	     -4.49065965	     -5.64479781	     -0.84981316	      0.90632911	      0.91767860	      0.39885400	     19.49585614	     -6.40876884	     -6.84579188	     59.50315907	     59.50315907	      4.91541445	    -17.32761821	      2.77091465	     17.51773048	     -3.25896424	     -4.25477258	     32.04072882	     32.04072882	     21.08772092	    -17.42083008	      9.01976174	    -11.29852336	      7.46657869	      3.26898207	     10.84709271	    -13.78216378	    -19.73538683	     21.02393072	     47.15985624	      0.00000000	      0.00000000	     16.74705350	    -15.65241259	     13.59066085	     44.15688467	     46.14667927	      0.00000000	      0.00000000
     49.95892857	     -4.48353552	     -5.79569736	     -1.60238002	      0.90425737	      0.91784153	      0.39829433	     20.99615475	     -5.94190306	     -6.56893962	     59.87549088	     59.87549088	      5.84190955	    -17.34001508	      4.18175242	     17.04576922	     -3.50031273	     -4.82431363	     31.96700905	     31.96700905	     21.53233950	    -17.40681941	      9.31861925	    -11.58480310	      7.72310210	      2.99205383	      7.83835623	    -12.99331251	    -19.56574022	     20.81570970	     47.13085472	      0.00000000	      0.00000000	     17.95262136	    -15.98685535	     11.70650887	     46.43310526	     46.37644247	      0.00000000	      0.00000000
     49.97857143	     -4.55336439	     -5.91822696	     -2.42341871	      0.90214595	      0.91826836	      0.39801200	     22.45229790	     -5.46619218	     -6.26266819	     59.71361832	     59.71361832	      6.35245293	    -17.29386565	      4.19193212	     16.54569299	     -3.72483190	     -5.47379852	     31.67798293	     31.67798293	     21.70933781	    -17.46351174	      9.37552415	    -11.75156102	      7.95988892	      2.92540499	      5.16610428	    -12.43817517	    -19.47464467	     19.79451980	     47.14381001	      0.00000000	      0.00000000	     19.62584477	    -16.34741568	     10.94613102	     47.62960508	     46.47843839	      0.00000000	      0.00000000
     49.99821429	     -4.60163047	     -6.08220003	     -3.27536772	      0.90008400	      0.91916648	      0.39808257	     23.74257554	     -4.88254578	     -5.95521520	     58.99265722	     58.99265722	      6.79763184	    -17.14615756	      4.25085457	     15.90398887	     -3.99816898	     -6.15331588	     31.18493716	     31.18493716	     21.81809287	    -17.48346072	      9.47167763	    -11.95151055	      8.21744188	      2.89427728	      2.53061391	    -11.96535690	    -19.42103147	     19.13871648	     47.14551813	      0.00000000	      0.00000000	     21.17628124	    -16.70351083	      9.93885347	     49.06539295	     46.60250272	      0.00000000	      0.00000000
     50.01785714	     -4.80555207	     -6.25675799	     -4.12881778	      0.89784005	      0.92019911	      0.39850609	     25.05213826	     -4.27763534	     -5.72383536	     57.68252036	     57.68252036	      7.21073955	    -16.69809960	      4.17239955	     15.40514079	     -4.29203555	     -6.79598871	     30.60753679	     30.60753679	     21.85870811	    -17.51308852	      9.60243368	    -11.94724923	      8.51347034	      2.19674029	      0.57366912	    -11.51091961	    -19.45120451	     18.56184065	     47.15379588	      0.00000000	      0.00000000	     22.50980622	    -17.67611884	      9.37838259	     49.68357118	     46.67047445	      0.00000000	      0.00000000
     50.03750000	     -4.91139967	     -6.46116297	     -5.10087293	      0.89582191	      0.92180799	      0.39939403	     26.01738775	     -3.54445917	     -5.37678764	     55.63493457	     55.63493457	      7.16493208	    -16.26233919	      3.06584006	     14.54448454	     -4.63584546	     -7.64011362	     29.61713368	     29.61713368	     21.68490375	    -17.43255632	      9.45311406	    -12.22740383	      8.73430006	      2.42595301	     -2.55317917	    -11.25738601	    -19.48330683	     20.21713308	     47.06620006	      0.00000000	      0.00000000	     23.14211948	    -17.57847846	      5.91494333	     53.39559149	     47.01854667	      0.00000000	      0.00000000
     50.05714286	     -5.05107958	     -6.64720278	     -6.06786372	      0.89371639	      0.92360787	      0.40061584	     26.84852774	     -2.84509586	     -5.09998555	     53.02780492	     53.02780492	      7.31914743	    -15.27442246	      2.62512481	     13.65289014	     -4.93906206	     -8.45921207	     28.49112245	     28.49112245	     21.54727930	    -17.36420342	      9.64891040	    -12.34636608	      8.93208178	      2.36170619	     -4.46395955	    -11.13621088	    -19.42281142	     19.84788223	     47.06334703	      0.00000000	      0.00000000	     24.48534097	    -18.13195926	      4.99203847	     54.72225561	     47.12043303	      0.00000000	      0.00000000
     50.07678571	     -5.35594128	     -6.82293009	     -7.05447208	      0.89156533	      0.92519291	      0.40213023	     27.52962733	     -2.17877945	     -4.99174723	     49.57006833	     49.57006833	      6.33736359	    -14.35382044	     -0.75497399	     12.89433500	     -5.25851318	     -9.34500249	     27.27140245	     27.27140245	     21.12705426	    -17.28669048	      9.16473671	    -12.33443269	      9.13243019	      1.87962826	     -6.56778009	    -11.07605342	    -19.14696939	     21.44092639	     46.96541908	      0.00000000	      0.00000000	     24.75320502	    -18.67337124	      1.99198517	     57.82436149	     47.38965789	      0.00000000	      0.00000000
     50.09642857	     -5.64227436	     -6.99517500	     -8.04739522	      0.88944142	      0.92676160	      0.40394471	     27.94866222	     -1.52552404	     -5.01006807	     45.55497048	     45.55497048	      5.49591957	    -12.80402505	     -3.38108475	     12.05259182	     -5.55907748	    -10.24830535	     25.95638524	     25.95638524	     20.77666104	    -17.16457706	      8.88020409	    -12.32713232	      9.30271691	      1.68537979	     -8.25171098	    -11.16168283	    -18.69608716	     22.07177950	     46.90040317	      0.00000000	      0.00000000	     25.56137431	    -19.28924883	      0.34702398	     60.03695494	     47.53188913	      0.00000000	      0.00000000
